<?xml version="1.0" encoding="UTF-8" standalone="no"?><svg xmlns="http://www.w3.org/2000/svg" xmlns:xlink="http://www.w3.org/1999/xlink" fill="#3e2f5b" height="31.5" preserveAspectRatio="xMidYMid meet" version="1" viewBox="0.0 0.0 196.0 31.5" width="196" zoomAndPan="magnify"><g id="change1_1"><path d="M195.68 2.24L195.68 1.6 195.36 1.6 195.36 1.28 195.04 1.28 195.04 0.96 194.72 0.96 194.72 0.64 194.4 0.64 194.4 0.32 193.76 0.32 193.76 0 2.24 0 2.24 0.32 1.6 0.32 1.6 0.64 1.28 0.64 1.28 0.96 0.96 0.96 0.96 1.28 0.64 1.28 0.64 1.6 0.32 1.6 0.32 2.24 0 2.24 0 29.31 0.32 29.31 0.32 29.95 0.64 29.95 0.64 30.27 0.96 30.27 0.96 30.59 1.28 30.59 1.28 30.91 1.6 30.91 1.6 31.23 2.24 31.23 2.24 31.55 193.76 31.55 193.76 31.23 194.4 31.23 194.4 30.91 194.72 30.91 194.72 30.59 195.04 30.59 195.04 30.27 195.36 30.27 195.36 29.95 195.68 29.95 195.68 29.31 196 29.31 196 2.24 195.68 2.24z"/></g><g id="change2_1"><path d="M195.04,2.56v-.64h-.32v-.32h-.32v-.32h-.32v-.32h-.64v-.32H2.56v.32h-.64v.32h-.32v.32h-.32v.32h-.32v.64h-.32V28.99h.32v.64h.32v.32h.32v.32h.32v.32h.64v.32H193.44v-.32h.64v-.32h.32v-.32h.32v-.32h.32v-.64h.32V2.56h-.32Zm-.96,26.11h-.32v.32h-.32v.32h-.32v.32H2.88v-.32h-.32v-.32h-.32v-.32h-.32V2.88h.32v-.32h.32v-.32h.32v-.32H193.12v.32h.32v.32h.32v.32h.32V28.67Z" fill="#ffffff"/></g></svg>