<?xml version="1.0" encoding="UTF-8" standalone="no"?><svg xmlns="http://www.w3.org/2000/svg" xmlns:xlink="http://www.w3.org/1999/xlink" fill="#000000" height="493.3" preserveAspectRatio="xMidYMid meet" version="1" viewBox="-228.8 -228.8 493.3 493.3" width="493.3" zoomAndPan="magnify"><g id="change1_1"><path d="M176.095,87.365c-25.41,0-48.238,10.836-64.348,28.041l-164.21-91.201 c0.071-1.685,0.22-3.37,0.22-5.155c0-1.355-0.17-2.751-0.209-4.096l166.384-92.377c15.969,15.83,37.899,25.619,62.152,25.619 c48.746,0,88.311-39.625,88.311-88.49c0.021-48.926-39.545-88.55-88.3-88.55c-48.707,0-88.271,39.624-88.271,88.55 c0,2.581,0.179,5.213,0.408,7.805l-164.31,91.21c-16.14-17.255-38.957-28.181-64.456-28.181c-48.766,0-88.301,39.605-88.301,88.531 c0,48.875,39.536,88.529,88.301,88.529c25.111,0,47.709-10.536,63.788-27.433l164.769,91.5c-0.02,1.396-0.198,2.762-0.198,4.227 c0,48.916,39.563,88.521,88.271,88.521c48.746,0,88.31-39.604,88.31-88.521C264.416,126.979,224.85,87.365,176.095,87.365z" fill="#000000"/></g></svg>