<?xml version="1.0" encoding="UTF-8" standalone="no"?><svg xmlns="http://www.w3.org/2000/svg" xmlns:xlink="http://www.w3.org/1999/xlink" fill="#000000" height="250.4" preserveAspectRatio="xMidYMid meet" version="1" viewBox="0.0 0.0 402.6 250.4" width="402.6" zoomAndPan="magnify"><defs><clipPath id="a"><path d="M 0 0 L 402.578125 0 L 402.578125 151 L 0 151 Z M 0 0"/></clipPath><clipPath id="b"><path d="M 56 99 L 83 99 L 83 250.441406 L 56 250.441406 Z M 56 99"/></clipPath></defs><g><g clip-path="url(#a)" id="change1_3"><path d="M 73.058594 47.914062 L 73.054688 47.894531 M 402.519531 75.199219 L 402.582031 75.179688 L 402.460938 75.179688 L 311.390625 41.164062 L 311.339844 41.101562 L 311.265625 41.117188 L 248.371094 17.628906 L 248.34375 17.617188 L 248.320312 17.5625 L 248.234375 17.578125 L 201.269531 0.0351562 L 201.289062 0 L 125.882812 28.160156 L 73.042969 47.898438 L 0 75.179688 L 95.097656 110.695312 L 99.03125 112.164062 L 154.078125 132.726562 L 201.289062 150.359375 L 255.105469 130.257812 L 255.109375 130.257812 L 303.550781 112.164062 L 316.152344 107.460938 L 402.492188 75.210938 L 402.550781 75.210938 L 402.519531 75.199219" fill="#000000"/></g><g id="change1_1"><path d="M 99.03125 120.722656 L 99.03125 160.953125 L 99.035156 160.953125 C 99.035156 160.984375 99.03125 161.015625 99.03125 161.046875 C 99.03125 177.785156 110.367188 192.941406 128.710938 203.949219 C 147.238281 215.070312 172.910156 221.960938 201.289062 221.960938 C 204.945312 221.960938 208.550781 221.84375 212.105469 221.621094 L 212.109375 221.617188 C 239.589844 219.898438 263.824219 211.695312 280.429688 199.621094 C 294.875 189.117188 303.550781 175.6875 303.550781 161.046875 C 303.550781 161.015625 303.546875 160.984375 303.546875 160.953125 L 303.550781 160.953125 L 303.550781 120.722656 L 201.289062 158.917969 L 99.03125 120.722656" fill="#000000"/></g><g clip-path="url(#b)" id="change1_2"><path d="M 79.261719 211.554688 L 79.207031 211.007812 L 75.886719 176.523438 L 75.742188 175.011719 L 74.144531 158.40625 L 75.488281 158.40625 L 75.488281 139.945312 C 77.335938 138.285156 78.503906 135.882812 78.503906 133.199219 C 78.503906 131.824219 78.195312 130.523438 77.648438 129.359375 C 76.757812 127.464844 75.234375 125.925781 73.347656 125.015625 L 73.347656 102.574219 L 65.332031 99.582031 L 65.332031 125.09375 C 62.371094 126.589844 60.335938 129.652344 60.335938 133.199219 C 60.335938 135.882812 61.503906 138.285156 63.351562 139.945312 L 63.351562 158.40625 L 64.820312 158.40625 L 63.847656 168.347656 L 62.640625 180.710938 L 59.660156 211.179688 L 59.652344 211.285156 L 58.035156 227.804688 L 56.59375 242.582031 C 56.558594 242.898438 56.550781 243.261719 56.59375 243.585938 C 57.078125 247.640625 63.214844 250.699219 70.296875 250.421875 C 77.378906 250.148438 82.730469 246.636719 82.246094 242.582031 L 79.261719 211.554688" fill="#000000"/></g></g></svg>